<svg width="20.176270" height="20.176025" viewBox="0 0 20.1763 20.176" fill="none" xmlns="http://www.w3.org/2000/svg" xmlns:xlink="http://www.w3.org/1999/xlink">
	<desc>
			Created with Pixso.
	</desc>
	<defs/>
	<path id="Vector" d="M19.79 2.22C19.91 2.1 20.01 1.96 20.07 1.8C20.14 1.64 20.17 1.47 20.17 1.3C20.17 1.13 20.14 0.96 20.07 0.8C20.01 0.64 19.91 0.5 19.79 0.38C19.67 0.26 19.53 0.16 19.37 0.1C19.21 0.03 19.04 0 18.87 0C18.7 0 18.53 0.03 18.37 0.09C18.21 0.16 18.07 0.26 17.95 0.38L10.08 8.24L2.22 0.38C1.98 0.13 1.65 0 1.3 0C0.95 0 0.62 0.13 0.38 0.38C0.13 0.62 0 0.95 0 1.3C0 1.65 0.13 1.98 0.38 2.22L8.24 10.08L0.38 17.94C0.26 18.06 0.16 18.21 0.09 18.37C0.03 18.53 0 18.7 0 18.87C0 19.04 0.03 19.21 0.09 19.37C0.16 19.52 0.26 19.67 0.38 19.79C0.62 20.03 0.95 20.17 1.3 20.17C1.47 20.17 1.64 20.14 1.8 20.07C1.96 20.01 2.1 19.91 2.22 19.79L10.08 11.93L17.95 19.79C18.19 20.03 18.52 20.17 18.87 20.17C19.21 20.17 19.55 20.03 19.79 19.79C20.03 19.54 20.17 19.21 20.17 18.87C20.17 18.52 20.03 18.19 19.79 17.94L11.93 10.08L19.79 2.22Z" fill="#1BFF07" fill-opacity="1.000000" fill-rule="evenodd"/>
</svg>
